<svg width="17" height="17" viewBox="0 0 17 17" fill="none" xmlns="http://www.w3.org/2000/svg">
<path d="M11 1H14C15.1046 1 16 1.89543 16 3V6" stroke="black" stroke-linecap="round" stroke-linejoin="round"/>
<path d="M1 6L1 3C1 1.89543 1.89543 1 3 1H6" stroke="black" stroke-linecap="round" stroke-linejoin="round"/>
<path d="M6 16H3C1.89543 16 1 15.1046 1 14L1 11" stroke="black" stroke-linecap="round" stroke-linejoin="round"/>
<path d="M16 11V14C16 15.1046 15.1046 16 14 16H11" stroke="black" stroke-linecap="round" stroke-linejoin="round"/>
<path d="M3 5V5C4.25903 4.37049 5.74097 4.37049 7 5V5M10 5V5C11.259 4.37049 12.741 4.37049 14 5V5" stroke="black" stroke-linecap="round" stroke-linejoin="round"/>
<path d="M3 12L6.33366 12.8334C8.07886 13.2697 9.90944 13.2272 11.6325 12.7103L14 12" stroke="black" stroke-linecap="round"/>
</svg>
