<svg width="275" height="626" viewBox="0 0 275 626" fill="none" xmlns="http://www.w3.org/2000/svg">
<path d="M206.763 311.697C209.384 322.197 205.878 332.05 198.935 333.704C191.991 335.357 184.24 328.186 181.62 317.681C180.514 313.499 180.464 309.116 181.475 304.897L170.956 260.267L192.821 255.807L200.869 300.278C203.755 303.57 205.776 307.485 206.763 311.697Z" fill="#FDADB0"/>
<path d="M115.095 566.897L116.442 596.149L115.093 604.244L119.814 613.687L156.913 617.734L158.937 600.196L139.376 590.078L138.807 573.55L115.095 566.897Z" fill="#FDADB0"/>
<path d="M154.215 610.989L152.192 613.687L113.34 602.491C113.34 602.491 115.093 619.758 115.093 623.13C115.093 626.503 179.173 626.503 188.815 625.154C198.458 623.805 195.361 615.036 195.361 615.036L155.374 596.107L154.215 610.989Z" fill="#2F2E43"/>
<path d="M18.4392 545.365L10.3541 573.509L6.4856 580.746L7.93684 591.204L41.7895 606.911L49.3192 590.943L34.0247 575.097L43.6188 550.219L18.4392 545.365Z" fill="#FDADB0"/>
<path d="M41.392 599.657L38.6114 601.566L5.386 578.525C5.386 578.525 1.52067 595.445 0.44134 598.64C-0.63799 601.835 60.072 622.342 69.6391 624.15C79.2063 625.958 79.0789 616.659 79.0789 616.659L47.2519 585.929L41.392 599.657Z" fill="#2F2E43"/>
<path d="M117.71 83.9671L119.127 106.972L76.1686 109.152L89.4713 78.8417L117.71 83.9671Z" fill="#FDADB0"/>
<path d="M120.223 103.532C108.708 108.667 90.2915 107.262 69.4204 103.532L66.1583 248.128C66.1583 248.128 131.446 261.254 153.894 237.035L142.079 118.89L120.223 103.532Z" fill="#E0E1E2"/>
<path d="M146.805 240.579L54.6349 249.689L9.1496 558.536H44.0022L103.682 346.909L108.408 586.743H140.307L167.48 293.153L146.805 240.579Z" fill="#2F2E43"/>
<path d="M82.5242 94.6707L51.5559 112.997C39.8244 119.939 34.2948 133.953 38.1252 147.036L62.0594 228.782C62.0594 228.782 23.0845 295.74 35.7492 301.647C64.2085 314.921 106.676 311.689 106.676 311.689L97.1843 151.38L82.5242 94.6707Z" fill="#3F3D58"/>
<path d="M118.877 102.924L153.894 116.527L162.164 217.541L185.324 298.917C146.096 313.236 149.759 306.563 149.759 306.563L143.261 166.148L118.877 102.924Z" fill="#3F3D58"/>
<path d="M170.031 297.196L169.911 296.643L134.117 131.092C133.117 126.467 134.396 121.83 137.625 118.37C140.855 114.91 145.394 113.317 150.078 113.998C155.856 114.838 160.481 119.046 161.861 124.719L201.177 286.325L170.031 297.196Z" fill="#3F3D58"/>
<path d="M99.07 90.0789C118.318 90.0789 133.922 74.4751 133.922 55.2268C133.922 35.9786 118.318 20.3748 99.07 20.3748C79.8217 20.3748 64.2179 35.9786 64.2179 55.2268C64.2179 74.4751 79.8217 90.0789 99.07 90.0789Z" fill="#FDADB0"/>
<path d="M115.651 10.0733C123.328 12.7714 127.721 14.3153 131.744 18.1917C138.541 24.7396 139.663 33.49 140.705 41.6204C141.52 47.9809 142.575 56.2046 138.85 65.6004C137.579 68.8068 131.413 83.0927 119.611 84.898C117.294 85.2525 111.852 85.3458 113.421 84.1878C127.936 73.4714 134.131 67.0019 133.623 50.4861C133.308 40.2239 117.627 29.1441 108.316 27.1523C104.393 26.3134 99.1713 27.0798 95.4268 30.1538C87.6012 36.5783 87.935 63.1447 79.6832 68.6982C76.2897 70.9821 78.5509 54.9053 76.1596 57.5124C71.4416 62.6566 74.468 70.5346 75.3158 73.5347C79.3375 87.7656 86.9196 89.1584 90.8476 101.311C95.0886 114.431 89.7511 126.784 88.4853 129.713C86.2837 134.808 82.5049 143.553 73.8718 147.749C62.9136 153.074 54.2762 146.14 49.1816 152.085C46.3336 155.408 47.8741 158.928 42.7305 169.265C41.0513 172.639 40.2118 174.327 39.4685 174.267C35.9513 173.984 30.2566 145.829 39.4668 119.609C43.3322 108.605 47.119 97.8246 57.2696 89.3944C62.6362 84.9375 67.1372 83.3337 68.4183 78.129C70.2485 70.6934 62.6485 67.5197 61.125 55.7876C60.0833 47.764 59.3524 36.2886 62.1853 28.9335C64.8604 21.9877 67.1827 15.9583 73.2613 10.4915C74.7212 9.17842 86.5063 0.253037 99.0019 0.00126749C104.755 -0.114473 108.981 7.72912 115.651 10.0733Z" fill="#2F2E43"/>
<path d="M189.294 314.523C236.373 314.523 274.537 276.358 274.537 229.28C274.537 182.201 236.373 144.037 189.294 144.037C142.216 144.037 104.052 182.201 104.052 229.28C104.052 276.358 142.216 314.523 189.294 314.523Z" fill="#6C63FF"/>
<path d="M225.03 189.748L251.371 201.878C252.374 202.34 252.813 203.528 252.351 204.532L240.22 230.873" stroke="white" stroke-width="5" stroke-linecap="round" stroke-linejoin="round"/>
<path d="M155.748 191.97L167.878 165.629C168.34 164.626 169.528 164.187 170.532 164.649L196.873 176.78" stroke="white" stroke-width="5" stroke-linecap="round" stroke-linejoin="round"/>
<path d="M157.97 261.253L131.629 249.122C130.626 248.66 130.187 247.472 130.649 246.468L142.78 220.128" stroke="white" stroke-width="5" stroke-linecap="round" stroke-linejoin="round"/>
<path d="M227.253 259.03L215.122 285.371C214.66 286.374 213.472 286.813 212.468 286.351L186.128 274.22" stroke="white" stroke-width="5" stroke-linecap="round" stroke-linejoin="round"/>
<path d="M169.604 191.526L178.463 191.241C181.609 191.14 184.619 192.527 186.587 194.983L192.13 201.9M209.025 209.68L217.884 209.396C221.03 209.295 224.039 210.681 226.008 213.137L231.551 220.054" stroke="white" stroke-width="5" stroke-linecap="round" stroke-linejoin="round"/>
<path d="M151.45 230.946L179.205 253.233C180.608 254.36 182.289 255.087 184.07 255.338L213.396 259.474" stroke="white" stroke-width="5" stroke-linecap="round"/>
<path d="M117.343 211.895C128.106 210.763 137.375 215.606 138.045 222.713C138.716 229.819 130.534 236.496 119.767 237.627C115.472 238.14 111.124 237.579 107.088 235.99L61.4271 240.19L60.0563 217.918L105.215 216.141C108.876 213.742 113.035 212.286 117.343 211.895Z" fill="#FDADB0"/>
<path d="M61.7127 114.053C50.6601 112.497 40.2906 119.764 37.9934 130.687C29.9785 168.794 15.5959 249.968 38.1855 251.323C67.7216 253.095 96.0763 246.007 96.0763 246.007L88.9876 205.247L65.9494 202.884L79.501 139.498C82.0741 127.462 73.8999 115.77 61.7127 114.053Z" fill="#3F3D58"/>
</svg>
